<?xml version="1.0" encoding="utf-8"?>
<!-- Generator: Adobe Illustrator 27.5.0, SVG Export Plug-In . SVG Version: 6.00 Build 0)  -->
<svg version="1.1" id="Layer_1" xmlns="http://www.w3.org/2000/svg" xmlns:xlink="http://www.w3.org/1999/xlink" x="0px" y="0px"
	 viewBox="0 0 4000 4000" style="enable-background:new 0 0 4000 4000;" xml:space="preserve">
<g>
	<rect style="fill-rule:evenodd;clip-rule:evenodd;fill:#FFFFFF;" width="4000" height="4000"/>
	<g>
		<defs>
			<path id="SVGID_1_" d="M2154.23,2250.001c-201.549,44.284-380.067,123.724-535.563,238.312
				c-306.961-596.123-121.605-1246.145,556.062-1950.058c-45.214,278.361,82.907,594.401,384.372,948.125
				C2785.952,1812.027,2650.996,2066.563,2154.23,2250.001"/>
		</defs>
		<clipPath id="SVGID_00000098190606633679736840000017976853310779064973_">
			<use xlink:href="#SVGID_1_"  style="overflow:visible;"/>
		</clipPath>
		
			<linearGradient id="SVGID_00000106138789124213843920000007738578923455595155_" gradientUnits="userSpaceOnUse" x1="2734.2766" y1="377.8188" x2="1674.8624" y2="2132.769">
			<stop  offset="0" style="stop-color:#1EF8FC"/>
			<stop  offset="1" style="stop-color:#E14FD0"/>
		</linearGradient>
		
			<rect x="1311.705" y="538.254" style="clip-path:url(#SVGID_00000098190606633679736840000017976853310779064973_);fill:url(#SVGID_00000106138789124213843920000007738578923455595155_);" width="1474.247" height="1950.058"/>
	</g>
	<g>
		<defs>
			<path id="SVGID_00000083061421278596019450000007185234292409748643_" d="M2756.412,2775.313
				c-125.74,487.464-715.118,468.676-1137.746-287C2358.515,2115.04,2845.393,2318.333,2756.412,2775.313"/>
		</defs>
		<clipPath id="SVGID_00000127737734649429860130000008982926473941619337_">
			<use xlink:href="#SVGID_00000083061421278596019450000007185234292409748643_"  style="overflow:visible;"/>
		</clipPath>
		
			<linearGradient id="SVGID_00000069389581393418294560000002436056076370702724_" gradientUnits="userSpaceOnUse" x1="2514.0813" y1="3124.8105" x2="1847.2255" y2="2094.2056">
			<stop  offset="0" style="stop-color:#EAD40C"/>
			<stop  offset="1" style="stop-color:#FF00E9"/>
		</linearGradient>
		
			<rect x="1618.667" y="2115.04" style="clip-path:url(#SVGID_00000127737734649429860130000008982926473941619337_);fill:url(#SVGID_00000069389581393418294560000002436056076370702724_);" width="1226.726" height="1147.737"/>
	</g>
	<g>
		<defs>
			<path id="SVGID_00000093866372895549631520000004782262672754443173_" d="M2641.167,3064.445
				c-249.503,437.24-813.198,264.122-1022.227-576.096C2430.91,2322.775,2847.19,2646.948,2641.167,3064.445"/>
		</defs>
		<clipPath id="SVGID_00000041274854993797739890000008096034047622756535_">
			<use xlink:href="#SVGID_00000093866372895549631520000004782262672754443173_"  style="overflow:visible;"/>
		</clipPath>
		
			<linearGradient id="SVGID_00000168095385192678335530000000201488518895245701_" gradientUnits="userSpaceOnUse" x1="2363.6982" y1="3322.5603" x2="1991.3164" y2="2152.8726">
			<stop  offset="0" style="stop-color:#EAD40C"/>
			<stop  offset="1" style="stop-color:#FF00E9"/>
		</linearGradient>
		
			<rect x="1618.94" y="2322.775" style="opacity:0.38;clip-path:url(#SVGID_00000041274854993797739890000008096034047622756535_);fill:url(#SVGID_00000168095385192678335530000000201488518895245701_);" width="1228.25" height="1178.91"/>
	</g>
	<defs>
		<filter id="Adobe_OpacityMaskFilter" filterUnits="userSpaceOnUse" x="1840.455" y="538.254" width="825.32" height="1740.146">
			<feColorMatrix  type="matrix" values="1 0 0 0 0  0 1 0 0 0  0 0 1 0 0  0 0 0 1 0"/>
		</filter>
	</defs>
	
		<mask maskUnits="userSpaceOnUse" x="1840.455" y="538.254" width="825.32" height="1740.146" id="SVGID_00000008115942662926463660000008041652034619915192_">
		<g style="filter:url(#Adobe_OpacityMaskFilter);">
			
				<linearGradient id="SVGID_00000072257928147594441380000005077034518146596250_" gradientUnits="userSpaceOnUse" x1="-8926.791" y1="5520.5068" x2="-9026.6172" y2="6714.2114" gradientTransform="matrix(1 0 0 1 11251.5068 -4968.3638)">
				<stop  offset="0" style="stop-color:#FFFFFF"/>
				<stop  offset="1" style="stop-color:#000000"/>
			</linearGradient>
			
				<rect x="1840.455" y="538.254" style="fill:url(#SVGID_00000072257928147594441380000005077034518146596250_);" width="825.32" height="1740.146"/>
		</g>
	</mask>
	
		<path style="mask:url(#SVGID_00000008115942662926463660000008041652034619915192_);fill-rule:evenodd;clip-rule:evenodd;fill:#39D4FF;" d="
		M2154.23,2250c496.766-183.438,631.72-437.972,404.869-763.62c-301.463-353.724-429.587-669.764-384.373-948.125
		c-129.365,134.375-240.787,266.787-334.271,397.235c41.847,209.731,167.707,437.725,377.582,683.985
		c186.479,267.694,128.475,487.332-174.018,658.926C2079.957,2267.715,2116.693,2258.247,2154.23,2250"/>
	<defs>
		
			<filter id="Adobe_OpacityMaskFilter_00000036945760492765754020000012113808950816961975_" filterUnits="userSpaceOnUse" x="1643.315" y="2294.284" width="1123.563" height="810.813">
			<feColorMatrix  type="matrix" values="1 0 0 0 0  0 1 0 0 0  0 0 1 0 0  0 0 0 1 0"/>
		</filter>
	</defs>
	
		<mask maskUnits="userSpaceOnUse" x="1643.315" y="2294.284" width="1123.563" height="810.813" id="SVGID_00000067205558369305848310000009724916814912740245_">
		<g style="filter:url(#Adobe_OpacityMaskFilter_00000036945760492765754020000012113808950816961975_);">
			
				<linearGradient id="SVGID_00000041266351782352223040000016309105696632936880_" gradientUnits="userSpaceOnUse" x1="-8382.7793" y1="7711.145" x2="-9049.7227" y2="7214.4658" gradientTransform="matrix(1 0 0 1 11160.1523 -4585.2744)">
				<stop  offset="0" style="stop-color:#FFFFFF"/>
				<stop  offset="1" style="stop-color:#000000"/>
			</linearGradient>
			
				<rect x="1643.315" y="2294.284" style="fill:url(#SVGID_00000041266351782352223040000016309105696632936880_);" width="1123.563" height="810.813"/>
		</g>
	</mask>
	
		<path style="mask:url(#SVGID_00000067205558369305848310000009724916814912740245_);fill-rule:evenodd;clip-rule:evenodd;fill:#FCE2A6;" d="
		M2756.412,2775.313c87.988-451.886-387.114-655.708-1113.098-299.266c527.819-148.407,845.342,55.89,772.036,432.362
		c-19.991,77.506-51.705,142.214-92.605,193.196C2527.869,3127.345,2695.875,3010.002,2756.412,2775.313"/>
	<g>
		<defs>
			<path id="SVGID_00000168814993830635157860000009228358683423060398_" d="M2198.614,2404.003
				c-206.032-11.604-399.345,16.849-579.947,85.35c-135.162-656.749,218.328-1232.883,1060.465-1728.395
				c-118.476,255.915-80.157,594.778,114.963,1016.596C2924.913,2152.245,2726.422,2361.058,2198.614,2404.003"/>
		</defs>
		<clipPath id="SVGID_00000148645967096384626890000014373762235581285291_">
			<use xlink:href="#SVGID_00000168814993830635157860000009228358683423060398_"  style="overflow:visible;"/>
		</clipPath>
		
			<linearGradient id="SVGID_00000119817381616531754120000000588041199197900970_" gradientUnits="userSpaceOnUse" x1="3197.9282" y1="689.8474" x2="1705.2147" y2="2094.8184">
			<stop  offset="0" style="stop-color:#1EF8FC"/>
			<stop  offset="1" style="stop-color:#E14FD0"/>
		</linearGradient>
		
			<rect x="1483.504" y="760.958" style="opacity:0.28;clip-path:url(#SVGID_00000148645967096384626890000014373762235581285291_);fill:url(#SVGID_00000119817381616531754120000000588041199197900970_);" width="1441.409" height="1728.395"/>
	</g>
	<path style="fill:#5E2C0B;" d="M1481.85,2258.665c-75.959-150.087-114.345-313.687-115.098-477.439
		c-0.776-169.109,38.58-338.42,118.13-493.216l-16.729-8.622c-80.941,157.501-120.984,329.798-120.193,501.913
		c0.746,162.276,37.79,324.37,111.06,473.74c-22.914-0.29-45.414,9.252-61.207,27.151c-2.649,3-5.039,6.159-7.172,9.445
		c-86.837-105.533-147.326-227.953-179.042-357.401c-33.147-135.287-34.888-278.288-2.47-417.753l-18.349-4.2
		c-33.082,142.31-31.295,288.263,2.544,426.375c33.069,134.979,96.749,262.442,188.393,371.677
		c-6.824,20.888-4.94,44.183,6.265,64.182c16.667,29.74,50.301,45.705,83.881,39.81c23.297,145.033,105.776,235.372,247.446,271.01
		c103.779,98.795,204.917,209.264,303.417,331.407c16.522,0.928,31.775-8.857,37.805-24.272c6.033-15.409,1.475-32.95-11.292-43.483
		c-127.858-111.978-229.493-217.046-304.89-315.2c-68.44-153.607-137.172-251.801-206.207-294.581
		c1.663-34.047-18.366-65.434-49.945-78.27C1486.101,2260.084,1483.983,2259.329,1481.85,2258.665"/>
</g>
</svg>
